<svg id="Layer_2" data-name="Layer 2" xmlns="http://www.w3.org/2000/svg" viewBox="0 0 5786.6 3984.7"><defs><style>.cls-1{fill:#fff;fill-rule:evenodd;}</style></defs><path class="cls-1" d="M2999.69,1007.9q86.49,0,171.74,7.46,85.7,7.44,170.46,22.32c470.65,82.34,886,331.6,1182.31,684,291.64,346.88,467.85,793.32,467.85,1278.57,0,548-224.12,1046.1-585.19,1407.17S3547.67,4992.6,2999.71,4992.6s-1046.12-224.12-1407.19-585.19-585.19-859.18-585.19-1407.17c0-485.67,176.5-932.43,468.57-1279.4,296.71-352.47,712.71-601.62,1184.12-683.53q84.6-14.68,169.09-22l2.2-.16q83.74-7.14,168.38-7.2Zm0,183.55q-77.89,0-153.31,6.48l-1.53.15q-79.17,6.84-154,19.89c-428.1,74.39-805.83,300.55-1075.12,620.46-264.79,314.58-424.82,720.25-424.82,1161.81,0,497.35,203.51,949.54,531.39,1277.41s780.07,531.4,1277.41,531.4,949.53-203.52,1277.41-531.4,531.39-780.08,531.39-1277.41c0-441.17-159.73-846.53-424.1-1161-268.89-319.8-646.21-546.07-1074-620.92q-75.72-13.23-154.68-20.16Q3078.84,1191.52,2999.71,1191.45Z" transform="translate(-106.4 -1007.9)"/><path class="cls-1" d="M2688.53,1871c2.57-.94,5.15-1.78,7.81-2.48,777.2-208.26,1517.17-278.46,2083.29-223.87,595.17,57.39,1008.55,257,1096.4,584.88S5705.67,2937,5219,3284.25c-462.47,330-1138.39,639-1916.1,847.4l.1.34c-777.16,208.24-1517.11,278.44-2083.21,223.84-595.16-57.4-1008.53-257-1096.37-584.87s170.31-707.41,657-1054.7c460.84-328.85,1133.75-636.9,1908.12-845.26Zm2075.31-44C4218,1774.38,3501,1843,2744.68,2045.57l-.74.21-.2-.32c-756,202.56-1411.43,501.85-1858.47,820.84C462.5,3168,233,3478.14,298.89,3723.93s419.68,399.66,936.64,449.53c546,52.66,1263.25-16,2019.81-218.73l.2.32c756-202.54,1411.48-501.85,1858.54-820.83,422.79-301.67,652.29-611.86,586.43-857.66S5280.82,1876.88,4763.84,1827Z" transform="translate(-106.4 -1007.9)"/><path class="cls-1" d="M1192.15,3075.19a91.48,91.48,0,1,1-182.82,7.17c-.49-11.86-.9-25.67-1.21-41-.52-24.79-.77-37.82-.77-41.16,0-548,224.13-1046.11,585.19-1407.15s859.19-585.19,1407.17-585.19S4045.79,1232,4406.86,1593.09s585.19,859.18,585.19,1407.15l-.78,41c-.3,15.55-.73,29.2-1.2,41.13a91.49,91.49,0,1,1-182.83-7.17c.58-14.24,1-26.84,1.21-37.56l0-37.39c0-497.33-203.53-949.54-531.39-1277.4S3497,1191.45,2999.71,1191.45,2050.17,1395,1722.3,1722.84s-531.4,780.06-531.4,1277.4l0,37.56C1191.15,3048.63,1191.56,3061,1192.15,3075.19Z" transform="translate(-106.4 -1007.9)"/><path class="cls-1" d="M3331.8,2937.71a91.78,91.78,0,1,1,183.55,0c0,142.37-57.74,271.3-151,364.62a515.58,515.58,0,0,1-729.22,0c-93.31-93.32-151-222.25-151-364.62a91.78,91.78,0,1,1,183.55,0,332.11,332.11,0,1,0,664.22,0Z" transform="translate(-106.4 -1007.9)"/><path class="cls-1" d="M4281.93,3168.6c86.42,0,156.88-70.47,156.88-156.88s-70.46-156.88-156.88-156.88-156.88,70.47-156.88,156.88S4195.52,3168.6,4281.93,3168.6Z" transform="translate(-106.4 -1007.9)"/><path class="cls-1" d="M1729.27,3168.6c86.42,0,156.89-70.47,156.89-156.88s-70.47-156.88-156.89-156.88-156.88,70.47-156.88,156.88S1642.87,3168.6,1729.27,3168.6Z" transform="translate(-106.4 -1007.9)"/></svg>