<svg id="Layer_1" data-name="Layer 1" xmlns="http://www.w3.org/2000/svg" viewBox="0 0 364.82 98.65"><defs><style>.cls-1,.cls-2{fill:#7997a7;}.cls-1{fill-rule:evenodd;}</style></defs><path class="cls-1" d="M75.65,38.61c1.16,0,2.32,0,3.47.15s2.3.25,3.44.45a40.05,40.05,0,1,1-13.76,0c1.13-.19,2.27-.34,3.41-.44s2.29-.15,3.44-.15Zm0,3.7c-1.05,0-2.1,0-3.12.14s-2.1.23-3.11.4a36.43,36.43,0,1,0,12.5,0c-1-.18-2.06-.32-3.12-.41S76.72,42.31,75.65,42.31Z" transform="translate(-17.26 -20.38)"/><path class="cls-1" d="M69.37,56l.16-.05h0c15.68-4.2,30.62-5.62,42-4.52,12,1.16,20.36,5.19,22.13,11.8s-3.44,14.28-13.26,21.29c-9.35,6.67-23,12.91-38.67,17.11s-30.62,5.62-42,4.52C27.72,105,19.38,101,17.6,94.37S21,80.1,30.86,73.09C40.16,66.45,53.74,60.23,69.37,56Zm41.88-.89c-11-1.06-25.48.32-40.74,4.41h0C55.23,63.64,42,69.68,33,76.12c-8.53,6.08-13.16,12.34-11.83,17.3s8.47,8.07,18.9,9.07c11,1.07,25.49-.32,40.76-4.41S109.31,88,118.32,81.52c8.53-6.09,13.17-12.35,11.84-17.31S121.69,56.15,111.25,55.14Z" transform="translate(-17.26 -20.38)"/><path class="cls-1" d="M39.17,80.33a1.85,1.85,0,1,1-3.69.15c0-.24,0-.52,0-.83,0-.5,0-.76,0-.83a40.21,40.21,0,0,1,80.42,0l0,.83c0,.31,0,.58,0,.83a1.85,1.85,0,1,1-3.69-.15c0-.29,0-.54,0-.76v-.75a36.5,36.5,0,0,0-73,0v.76C39.15,79.79,39.16,80,39.17,80.33Z" transform="translate(-17.26 -20.38)"/><path class="cls-1" d="M82.35,77.56a1.86,1.86,0,1,1,3.71,0,10.41,10.41,0,0,1-20.82,0,1.86,1.86,0,1,1,3.71,0,6.7,6.7,0,1,0,13.4,0Z" transform="translate(-17.26 -20.38)"/><path class="cls-1" d="M101.53,82.22a3.17,3.17,0,1,0-3.17-3.17A3.18,3.18,0,0,0,101.53,82.22Z" transform="translate(-17.26 -20.38)"/><path class="cls-1" d="M50,82.22a3.17,3.17,0,1,0-3.16-3.17A3.18,3.18,0,0,0,50,82.22Z" transform="translate(-17.26 -20.38)"/><path class="cls-2" d="M152.16,114.88a8.12,8.12,0,0,1-1.56-2.22,3.55,3.55,0,0,1-.06-2.16q.3-1.26.9-3.54a40.32,40.32,0,0,1,2.1-6.42q1.14-2.58,2.28-5.4a39.27,39.27,0,0,0,2-7.26q1.92-4.44,3.42-8.4t3.18-9A21.41,21.41,0,0,1,165.48,68q1-2,2.46-5T170.76,57q2-5.76,3.3-9.9t2.58-7.5a34.92,34.92,0,0,1,3.48-6.6,6.83,6.83,0,0,1,3.36-3.24,4.64,4.64,0,0,1,3.66.06A4.69,4.69,0,0,1,189.6,33a14.13,14.13,0,0,1,1,2.88,39.92,39.92,0,0,1,.78,4.86q.36,3.18.48,8.94.24,6.84.12,13.5t.06,12.3a42.06,42.06,0,0,0,1.26,9.6q.36,2.16,1,5.22t1.44,6.06a48.7,48.7,0,0,0,1.56,5q.78,2,1.26,2t1.62-1.56a35.48,35.48,0,0,0,2.64-5.64q1.62-4.08,3.9-11.58t5.16-19.26q.6-2,1.62-6.6A79.41,79.41,0,0,0,215,49.6q.84-3,1.68-6.6t1.5-6.36a29,29,0,0,0,.66-3.12q0-.84.06-1.44a4,4,0,0,0-.06-1.2q.6,0,1.08-1.62a10.13,10.13,0,0,0,.48-2.82,8.48,8.48,0,0,1,.54-3.3,6,6,0,0,1,1.14-1.86q.36-1,1.8-.9a7.06,7.06,0,0,1,2.88.78,3.23,3.23,0,0,1,1.8,1.92,21.46,21.46,0,0,1-.66,5.94q-.9,4.62-2.7,12.42a21.25,21.25,0,0,1-.72,4.32q-.72,3-1.5,6.36t-1.14,5.76Q221.4,61,220.8,63.7t-1.2,2.58a207.15,207.15,0,0,1-6.54,23.1q-3.42,9.54-6.06,15.54-2.88,6.6-6.3,8t-7.26-3.54a32.05,32.05,0,0,1-3.6-6.18,36.65,36.65,0,0,1-2.16-7.2q-.84-4.14-2-10.26a32.18,32.18,0,0,1-2-10,82.88,82.88,0,0,1,.3-10.38q.48-5.34.72-11.1a58.07,58.07,0,0,0-.48-7.68q-.36-1.92-1.38.18t-3.3,8.46q-.84,2.28-2.22,5.52t-2.7,6.42q-1.32,3.18-2.28,5.52l-1.2,2.94q-.72,1.44-1.68,3.78a31.48,31.48,0,0,0-1.56,5q-4.32,11.28-6.42,18t-3.06,9.36a11,11,0,0,1-2.52,4.5Q154.56,117.4,152.16,114.88Z" transform="translate(-17.26 -20.38)"/><path class="cls-2" d="M232.68,105.64a4.39,4.39,0,0,1-2.46-.6q-.9-.6-2.22-1.68a16.31,16.31,0,0,1-3.24-4.62,7.37,7.37,0,0,1-.6-4.26,6.89,6.89,0,0,0,.24-2.76q-.6-.6-.36-.78a1.87,1.87,0,0,0,.48-.66q.72,0,.48-1.32-.24-1,1-4.2a33.4,33.4,0,0,1,3-6.12q.72-1.2,2.16-3.18t3.18-4a29.62,29.62,0,0,1,3.18-3.18,31.14,31.14,0,0,1,5.28-3.72,20.05,20.05,0,0,1,4.92-1.8,19.8,19.8,0,0,1,3.66-.6q1,0,2.82,1.92a9.75,9.75,0,0,1,4,2.88,10,10,0,0,1,1.62,4.92,28.53,28.53,0,0,1-.54,8.22q-.9,4.62-5.7,11.46A32.76,32.76,0,0,1,248,98a44.64,44.64,0,0,1-6,4.14,23.7,23.7,0,0,1-4.56,2.46A17.78,17.78,0,0,1,232.68,105.64ZM244.2,92.92a42.34,42.34,0,0,0,4.62-6.12,39.85,39.85,0,0,0,3.3-7.32,11.88,11.88,0,0,0,.6-3.3,22.79,22.79,0,0,0-.06-3.72q-.18-1.74-.9-2a5.22,5.22,0,0,0-3.48-.54,9.24,9.24,0,0,0-4.44,2.34A30.18,30.18,0,0,0,237.36,80a101.94,101.94,0,0,0-5.4,10.5q-1.8,4.32-.78,6.9t4.44,1.8Q239,98.44,244.2,92.92Z" transform="translate(-17.26 -20.38)"/><path class="cls-2" d="M276.24,106.6a6,6,0,0,1-2.7-1.38,12.58,12.58,0,0,1-2.4-2.64,10.16,10.16,0,0,1-1.38-2.7,2.3,2.3,0,0,0-.6-1q-.48-.36-.54-3.18a51.15,51.15,0,0,1,.3-6.3,45.8,45.8,0,0,1,.84-5.52q.6-1.92,1.8-5.22t2-5.94l3.24-7L272,64.48a2.57,2.57,0,0,1-1.38-1,2.19,2.19,0,0,1-.54-1.2A4.13,4.13,0,0,1,271.2,60q1.08-1.38,1.56-1.38a13.42,13.42,0,0,0,2.22.12q1.62,0,3.18-.12a11.41,11.41,0,0,0,1.92-.24,4.58,4.58,0,0,0,1-.66,2.56,2.56,0,0,0,.72-1.26q.6-1.32,1.08-2.46a22.74,22.74,0,0,1,1.32-2.58q.84-1.56,1.38-2.64t1.74-3q.6-.84,1.32-2a7.35,7.35,0,0,1,1.8-2,3.07,3.07,0,0,1,2.22-.9,5.58,5.58,0,0,1,2.94,1.62,5.14,5.14,0,0,1,1.08,1.8q.12.6-1,2.28a41,41,0,0,1-2.22,4.08q-1.26,2-2.34,4.08-1.92,2.64-.72,3t6.72-.48q3.48-.6,5,.3A3.66,3.66,0,0,1,304,60.4q.36,2.88-.6,3.48t-5.52.6a37.33,37.33,0,0,1-4.92.54q-2,.06-3,.06-1.56.12-2,.12a6.56,6.56,0,0,0-1.44.24,2.43,2.43,0,0,0-1.38.78,9.2,9.2,0,0,0-.9,1.5,11,11,0,0,0-1.44,2.52q-1,2-2.4,4.44-1.68,5-2.88,10t-1.92,9.66q-.48,3,.12,4.14t3.12,1.38a31.59,31.59,0,0,0,4.26-.06,22.6,22.6,0,0,0,4.62-.66l2.76-1.26A27,27,0,0,0,293,96.52q1.08-.6,3.24-1.92.6-1,1.32-.6a2.94,2.94,0,0,1,1.2,1.8,8.34,8.34,0,0,1-.6,3q-.6,1.56-4.44,3.72a26.47,26.47,0,0,1-9.9,4A23.21,23.21,0,0,1,276.24,106.6Z" transform="translate(-17.26 -20.38)"/><path class="cls-2" d="M318,107.8a10.75,10.75,0,0,1-8.64-4,14.61,14.61,0,0,1-3.24-10,40.12,40.12,0,0,1,1.74-9.3,50.29,50.29,0,0,1,4-9.6,46.33,46.33,0,0,1,5.52-8.1,18.17,18.17,0,0,1,6.24-4.92,13.2,13.2,0,0,1,2.58-1,11.13,11.13,0,0,1,2.82-.36,9.85,9.85,0,0,1,2.76.42,14.54,14.54,0,0,1,2.4.9,8.45,8.45,0,0,1,3.12,2,10.64,10.64,0,0,1,1.92,3.72,24,24,0,0,1,.36,3.24,10.74,10.74,0,0,1-.6,2.88,27,27,0,0,1-3.72,7.44,18.91,18.91,0,0,1-6.12,5.28,7.38,7.38,0,0,1-2.22.9,11.1,11.1,0,0,1-2.58.3,12.18,12.18,0,0,1-4.62-.9A8,8,0,0,1,316.2,84l-.84-1L315,84a52.72,52.72,0,0,0-1.86,6,21.83,21.83,0,0,0-.66,5,12.42,12.42,0,0,0,.3,2.76,7.34,7.34,0,0,0,.9,2.28,2.66,2.66,0,0,0,1.62,1,9.64,9.64,0,0,0,2.46.3q.84,0,1.74-.06a5.28,5.28,0,0,0,1.74-.42,15,15,0,0,0,3.3-1.56q1.26-.84,2.58-1.8l.48-.24h-.12q1.44-.72,3.72-2.16a1.3,1.3,0,0,0,1-.6,2.62,2.62,0,0,1,2.46.36,2.47,2.47,0,0,1,1.5,2.16A5.6,5.6,0,0,1,335,99a19.48,19.48,0,0,1-2.1,2.34,4.14,4.14,0,0,1-1.86,1.2,3.68,3.68,0,0,1-.84.42,3.2,3.2,0,0,0-1,.54h.12a2.9,2.9,0,0,1-2.16,1.44h-1q-.48.84-3.12,1.86A14.26,14.26,0,0,1,318,107.8Zm5.4-26.4a6,6,0,0,0,3.78-1.26A15.68,15.68,0,0,0,330,77.32a13.89,13.89,0,0,0,2.82-6.3q.42-3.06-.78-4.26a3.86,3.86,0,0,0-1.26-.42,6.54,6.54,0,0,0-2.1.42,8.49,8.49,0,0,0-3,1.8A43.23,43.23,0,0,0,321.9,72a31.93,31.93,0,0,0-2.82,3.24l-1.56,2.52a6.53,6.53,0,0,1,1.86-.42q.9-.06,1,.18a4.62,4.62,0,0,0,.42,2,3.48,3.48,0,0,0,1.08,1.38A2.49,2.49,0,0,0,323.4,81.4Z" transform="translate(-17.26 -20.38)"/><path class="cls-2" d="M356.88,106.36a19.12,19.12,0,0,1-5.7-.36,10.91,10.91,0,0,1-4.56-2.1,7.8,7.8,0,0,1-2.58-3.66,6.56,6.56,0,0,1-.84-2.34,1.36,1.36,0,0,1,.84-1.14,3,3,0,0,1,1.74.54,13.8,13.8,0,0,0,2.1,1.14,7,7,0,0,0,4.38,1.68,10.33,10.33,0,0,0,4.74-.84q2.16-1,2.4-2.4A7,7,0,0,0,359,95.2q-.36-1.2-.84-2.52a34.66,34.66,0,0,1-4.74-9.06,24.48,24.48,0,0,1-1.5-7.38,9.83,9.83,0,0,1,1.32-4.62,12.33,12.33,0,0,1,3.6-4.14,29.41,29.41,0,0,1,4.8-4.08A43.05,43.05,0,0,1,367,60.28a28.88,28.88,0,0,1,4.86-1.92,22.21,22.21,0,0,1,3.48.36,10,10,0,0,1,3,.84,5.38,5.38,0,0,1,2.52,2.58,8.3,8.3,0,0,1,1.2,4.14,6.65,6.65,0,0,1-.48,2.16A18.75,18.75,0,0,1,380,71.56,19.82,19.82,0,0,1,379,74a4.27,4.27,0,0,0-.6,1.62q-.6,1.32-1.62,1.26a3.22,3.22,0,0,1-2-1.08,7.53,7.53,0,0,1-1.62-2.46,8.45,8.45,0,0,1-.36-2.94,5.8,5.8,0,0,1,1-2.46q1.32-1.32,1.32-1.8t-1.32-.48a9.24,9.24,0,0,0-3.06,1,35.65,35.65,0,0,0-4.68,2.64,27,27,0,0,0-4.26,3.42,12.88,12.88,0,0,0-2.7,3.12,8,8,0,0,0-.42,3,14.76,14.76,0,0,0,.78,4.2A8.63,8.63,0,0,0,361,86.44a55.71,55.71,0,0,0,2.88,5q3.48,7.68,1.8,11T356.88,106.36Z" transform="translate(-17.26 -20.38)"/></svg>