<svg xmlns="http://www.w3.org/2000/svg" viewBox="0 0 1016 1358.64"><defs><style>.cls-1{fill:#231f20;}.cls-2{fill:#fbb040;}</style></defs><g id="Main_Line" data-name="Main Line"><rect class="cls-1" x="64.09" width="951.82" height="5.54" rx="2.77"/></g><g id="Layer_3" data-name="Layer 3"><rect class="cls-1" x="64" y="67.13" width="952" height="3.99" rx="1.78"/><rect class="cls-1" x="64" y="1051.71" width="952" height="3.99" rx="1.78"/><rect class="cls-1" x="64" y="975.97" width="952" height="3.99" rx="1.78"/><rect class="cls-1" x="64" y="597.29" width="952" height="3.99" rx="1.78"/><rect class="cls-1" x="64" y="824.5" width="952" height="3.99" rx="1.78"/><rect class="cls-1" x="64" y="521.55" width="952" height="3.99" rx="1.78"/><rect class="cls-1" x="64" y="445.82" width="952" height="3.99" rx="1.78"/><rect class="cls-1" x="64" y="370.08" width="952" height="3.99" rx="1.78"/><rect class="cls-1" x="64" y="294.34" width="952" height="3.99" rx="1.78"/><rect class="cls-1" x="64" y="218.61" width="952" height="3.99" rx="1.78"/><rect class="cls-1" x="64" y="673.02" width="952" height="3.99" rx="1.78"/><rect class="cls-1" x="64" y="900.23" width="952" height="3.99" rx="1.78"/><rect class="cls-1" x="64" y="748.76" width="952" height="3.99" rx="1.78"/><rect class="cls-1" x="64" y="142.87" width="952" height="3.99" rx="1.78"/><rect class="cls-1" x="64" y="1127.44" width="952" height="3.99" rx="1.78"/><rect class="cls-1" x="64" y="1203.18" width="952" height="3.99" rx="1.78"/><rect class="cls-1" x="64" y="1278.91" width="952" height="3.99" rx="1.78"/><rect class="cls-1" x="64" y="1354.65" width="952" height="3.99" rx="1.78"/><rect class="cls-2" y="2.77" width="14.24" height="1353.87" rx="7.12"/></g></svg>